:SAMPLES-PER-SECOND 30
:FULLY-SPECIFIED
:DEGREES
462
root  -49.8919 40.5784 -12.8266 4.41383 -9.93094 0.447006
RightUpLeg  -13.1874 -15.2032 -11.5627
RightLeg  7.11592 -25.7707 4.71033
RightFoot  6.68193 -0.191737 1.49795
RightToes  0.00048216 0.542163 -0.142577
Spine  42.5735 -3.30616 10.2388
Spine1  6.47468 1.72722 -5.86883
HEad  -12.3374 35.4311 -30.2087
LeftShoulder1  9.53519 -15.6519 -43.2941
LeftArm  -12.429 11.2283 -18.8356
LeftForeArm  17.761 -12.4159 -4.62695
LeftHand  -0.25398 0.0180481 5.50724
RightShoulder  5.47194 10.8757 32.1074
RightArm  21.8168 2.68799 31.1691
RightForeArm  -17.9199 19.1099 7.38112
RightHand  -3.16161 8.02399 -27.2803
LeftUpLeg  -25.5922 10.6628 6.52104
LeftLeg  30.865 0.337407 0.572493
LeftFoot  -2.26319 0.390024 -4.73849
LeftToes  1.06248e-005 4.65856e-005 -8.18499e-006
463
root  -49.0443 40.4474 -12.5722 4.98317 -10.7826 1.10666
RightUpLeg  -14.3543 -16.2697 -13.2266
RightLeg  7.72738 -24.1174 4.37855
RightFoot  7.40786 -0.423115 2.86895
RightToes  0.00048216 0.542163 -0.142577
Spine  39.3039 -2.7767 9.27075
Spine1  6.22122 1.54746 -5.99964
HEad  -10.9962 37.9427 -30.4172
LeftShoulder1  9.29292 -14.8696 -44.0318
LeftArm  -12.3195 14.3788 -18.0852
LeftForeArm  17.3639 -14.7705 -4.21121
LeftHand  -0.25398 0.0180481 5.50724
RightShoulder  5.69889 11.0502 33.2068
RightArm  22.6712 -1.35869 30.5725
RightForeArm  -18.4348 19.6264 7.14062
RightHand  -3.0774 7.8498 -26.9204
LeftUpLeg  -24.2329 8.84357 7.55072
LeftLeg  26.7033 -0.100989 0.279014
LeftFoot  -3.2704 0.27081 -3.56324
LeftToes  1.06248e-005 4.65856e-005 -8.18499e-006
464
root  -48.1033 40.2557 -12.3334 5.43709 -11.6075 1.66689
RightUpLeg  -15.443 -17.5291 -14.9825
RightLeg  8.30608 -22.1216 4.28309
RightFoot  8.17755 -0.708399 4.44382
RightToes  0.00048216 0.542163 -0.142577
Spine  36.3249 -2.47613 8.28666
Spine1  6.19974 1.26307 -6.16411
HEad  -10.5931 40.0878 -30.6496
LeftShoulder1  9.06462 -14.2249 -44.536
LeftArm  -12.3649 16.5106 -17.5425
LeftForeArm  17.5412 -16.4928 -3.93429
LeftHand  -0.25398 0.0180481 5.50724
RightShoulder  5.98808 11.3635 34.3235
RightArm  23.3031 -5.13959 29.9413
RightForeArm  -19.4113 20.2962 6.85691
RightHand  -3.03968 7.83071 -26.6433
LeftUpLeg  -22.9039 6.4495 8.37882
LeftLeg  22.8496 -0.0246876 0.307693
LeftFoot  -3.96776 0.210482 -2.89942
LeftToes  1.06248e-005 4.65856e-005 -8.18499e-006
465
root  -47.0651 40.0431 -12.0909 4.98793 -12.154 1.60399
RightUpLeg  -15.0195 -18.3504 -16.5704
RightLeg  8.0426 -20.5252 4.37392
RightFoot  9.2589 -0.947963 5.56737
RightToes  0.00048216 0.542163 -0.142577
Spine  34.5978 -2.46485 7.8892
Spine1  6.33108 1.09328 -6.2449
HEad  -10.2412 41.6959 -30.5648
LeftShoulder1  8.876 -13.804 -44.6764
LeftArm  -12.5023 17.3855 -17.6141
LeftForeArm  18.6522 -17.4137 -3.78585
LeftHand  -0.25398 0.0180481 5.50724
RightShoulder  6.00888 11.252 34.7609
RightArm  23.4919 -8.79453 29.9831
RightForeArm  -20.7915 20.9677 6.619
RightHand  -3.12369 8.00505 -27.0071
LeftUpLeg  -21.075 3.91788 9.26091
LeftLeg  20.7056 0.885203 0.699157
LeftFoot  -4.65383 0.225296 -3.3889
LeftToes  1.06248e-005 4.65856e-005 -8.18499e-006
466
root  -45.9472 39.82 -11.8469 4.01357 -12.4471 1.3125
RightUpLeg  -13.5802 -18.767 -18.2251
RightLeg  6.99422 -19.7084 4.36832
RightFoot  10.8466 -1.25699 6.77249
RightToes  0.00048216 0.542163 -0.142577
Spine  33.8416 -2.45917 7.38484
Spine1  6.35991 0.929221 -5.99426
HEad  -9.31546 43.2537 -30.082
LeftShoulder1  8.72504 -13.543 -44.5851
LeftArm  -12.7193 17.5028 -18.175
LeftForeArm  20.1635 -18.0412 -3.6755
LeftHand  -0.25398 0.0180481 5.50724
RightShoulder  5.79177 10.7337 34.7206
RightArm  23.123 -12.4223 30.5277
RightForeArm  -21.2163 21.5421 6.40742
RightHand  -3.11993 7.98203 -27.0178
LeftUpLeg  -19.8178 3.3217 9.16302
LeftLeg  21.275 1.1249 0.807469
LeftFoot  -5.67393 0.282584 -5.0493
LeftToes  1.06248e-005 4.65856e-005 -8.18499e-006
467
root  -44.7627 39.5713 -11.6152 3.27202 -12.5724 1.59039
RightUpLeg  -12.1402 -19.2953 -20.4534
RightLeg  5.36983 -19.0299 4.2672
RightFoot  12.3073 -1.97517 9.81204
RightToes  0.00048216 0.542163 -0.142577
Spine  33.108 -2.20688 5.71363
Spine1  6.22512 0.510516 -5.19977
HEad  -8.43612 45.1294 -29.4336
LeftShoulder1  8.5991 -13.3609 -44.4079
LeftArm  -13.0981 17.2606 -18.879
LeftForeArm  21.3216 -18.8091 -3.58541
LeftHand  -0.25398 0.0180481 5.50724
RightShoulder  5.58399 10.2145 34.7472
RightArm  22.1002 -16.0555 31.0502
RightForeArm  -20.2064 22.1682 6.15873
RightHand  -2.83447 7.33858 -25.8264
LeftUpLeg  -20.2366 5.35391 7.29403
LeftLeg  24.0547 -0.319271 0.165373
LeftFoot  -6.95971 0.298171 -6.68692
LeftToes  1.06248e-005 4.65856e-005 -8.18499e-006
